<?xml version="1.0" standalone="no"?>
<!DOCTYPE svg PUBLIC "-//W3C//DTD SVG 20010904//EN"
 "http://www.w3.org/TR/2001/REC-SVG-20010904/DTD/svg10.dtd">
<svg version="1.0" xmlns="http://www.w3.org/2000/svg"
 width="500.000000pt" height="500.000000pt" viewBox="0 0 500.000000 500.000000"
 preserveAspectRatio="xMidYMid meet">

<g transform="translate(0.000000,500.000000) scale(0.100000,-0.100000)"
fill="#000000" stroke="none">
<path d="M1100 3294 c45 -131 48 -157 23 -152 -9 2 -24 24 -34 53 -44 125 -5
-18 180 -665 l198 -695 200 -3 200 -2 124 435 c68 239 126 435 129 435 3 0 61
-196 129 -435 l124 -435 193 0 c106 0 198 -2 206 -5 18 -7 124 331 109 349 -6
7 5 64 35 171 25 88 47 165 49 172 2 8 29 -5 71 -33 37 -25 127 -74 200 -108
206 -99 254 -140 254 -216 0 -90 -68 -141 -196 -148 -95 -5 -150 9 -261 68
l-72 39 -36 -117 c-20 -64 -44 -141 -53 -170 -10 -32 -12 -56 -6 -61 16 -15
139 -60 210 -78 96 -23 325 -23 414 0 142 38 268 118 321 204 19 30 20 36 7
51 -8 9 -76 86 -151 170 -76 85 -137 160 -137 168 0 36 39 2 171 -146 78 -88
146 -160 151 -160 24 0 -2 38 -96 145 -93 104 -117 145 -86 145 5 0 50 -46
101 -102 50 -57 95 -104 100 -106 5 -2 9 6 9 17 0 18 -77 113 -193 237 -16 18
-25 34 -20 37 5 3 54 -45 109 -108 54 -63 102 -114 107 -114 23 -2 -1 41 -58
104 -67 75 -74 88 -53 101 7 5 30 -13 60 -47 36 -41 48 -49 48 -34 0 39 -50
127 -107 186 -76 80 -161 134 -315 204 -225 101 -287 151 -273 224 14 75 64
111 164 119 83 6 169 -15 272 -66 l76 -38 72 144 c40 79 71 145 69 147 -22 18
-98 58 -153 80 -138 55 -326 78 -445 55 -25 -4 -46 -7 -48 -6 -1 2 5 25 13 52
8 27 15 50 15 52 0 1 -89 2 -199 2 l-199 0 -132 -532 c-73 -293 -136 -537
-141 -542 -4 -5 -12 9 -18 30 -167 635 -273 1030 -277 1036 -7 11 -261 10
-268 0 -4 -7 -154 -568 -277 -1036 -6 -21 -14 -35 -18 -30 -5 5 -68 249 -141
542 l-132 532 -38 0 -38 0 54 -167 c29 -93 54 -175 54 -182 0 -36 -21 15 -75
177 -53 161 -58 172 -82 172 -21 0 -23 -3 -17 -22 3 -13 27 -85 51 -162 32
-99 41 -142 34 -149 -18 -18 -25 -2 -81 165 -49 149 -63 179 -78 164 -5 -5 45
-171 75 -253 3 -7 0 -13 -5 -13 -6 0 -30 59 -54 131 -39 118 -58 153 -74 136
-3 -3 18 -77 47 -165 32 -98 50 -166 45 -177 -12 -33 -29 0 -87 173 -39 116
-61 168 -72 170 -13 3 -9 -18 23 -114z"/>
</g>
</svg>
